<?xml version="1.0" encoding="utf-8"?>
<!-- Generator: Adobe Illustrator 25.0.0, SVG Export Plug-In . SVG Version: 6.00 Build 0)  -->
<svg version="1.1" id="Layer_1" xmlns="http://www.w3.org/2000/svg" xmlns:xlink="http://www.w3.org/1999/xlink" x="0px" y="0px"
	 viewBox="0 0 213.4 126" style="enable-background:new 0 0 213.4 126;" xml:space="preserve">
<style type="text/css">
	.st0{fill-rule:evenodd;clip-rule:evenodd;fill:#4E5F89;}
	.st1{fill-rule:evenodd;clip-rule:evenodd;fill:#198CFF;}
	.st2{fill-rule:evenodd;clip-rule:evenodd;fill:#FFFFFF;}
	.st3{opacity:0.5;enable-background:new    ;}
	.st4{fill-rule:evenodd;clip-rule:evenodd;fill-opacity:0.1;}
	.st5{fill-rule:evenodd;clip-rule:evenodd;fill:#F2F2F2;}
	.st6{fill-opacity:0.25;}
	.st7{fill-rule:evenodd;clip-rule:evenodd;fill-opacity:5.000000e-02;}
	.st8{fill-opacity:0.15;}
	.st9{fill:#FFFFFF;}
	.st10{fill-rule:evenodd;clip-rule:evenodd;fill:#4D4D4D;}
	.st11{fill-rule:evenodd;clip-rule:evenodd;fill:#808080;}
</style>
<g>
	<path class="st0" d="M13.7,91.6V118c0,0.8,0.1,1,0.8,1l4.2,0.4v4.1H0.6v-4.1L5,119c0.7-0.1,0.8-0.3,0.8-1v-17.8
		c0-0.7-0.6-0.6-4.4,0.7L0,96.6l8.9-5.1H13.7z M30.8,91.7h3c3.7,0,6.7,0.9,6.7,5.8c0,5.8-3.8,6.6-7.2,6.6h-2.6
		C30.8,104.2,30.8,91.7,30.8,91.7z M34.6,109.7h-3.8v8.2c0,0.8,0.1,0.9,0.8,1l7.4,0.4v4.1H18.8v-4.1L22,119c0.7-0.1,0.8-0.3,0.8-1
		V91.6c0-0.8-0.1-1-0.8-1l-3.3-0.4v-4.1h17.5c9.6,0,12.4,5,12.4,11C48.7,106.1,43.3,109.7,34.6,109.7L34.6,109.7z M63.5,116.6
		c-1.2,0.9-2.9,1.9-4.7,1.9c-1.7,0-2.9-0.8-2.9-2.8c0-2.1,1.1-2.8,4.1-3l3.5-0.3V116.6L63.5,116.6z M87.2,106.8
		c4.1,0.9,8.7,2.4,8.7,8.4c0,6.3-5.1,8.9-11.7,8.9c-4.2,0-8.4-1-9.8-1.7v1h-9.5l-0.5-2.8l-0.3-0.1c-2,1.9-4.5,3.5-8.7,3.5
		c-6.5,0-7.5-4.4-7.5-7.6c0-5.2,3.2-7.5,9.7-7.9l5.9-0.4v-2.8c0-2.4-0.3-4.1-3.5-4.1c-2.5,0-3.8,0.4-3.8,3.5L49,104
		c0-7,6.4-7.9,11.1-7.9c7.9,0,11,2.1,11,9.3v12.5c0,0.8,0.1,0.9,0.8,1l2.1,0.3v-4.6l5.5,0.4l0.5,2.9c0.1,0.5,0.2,0.7,0.6,0.8
		c0.6,0.2,2,0.5,4,0.5c2.7,0,4.3-0.8,4.3-2.7c0-2.1-2.1-2.7-4.7-3.1c-4.3-0.8-10-1.7-10-8.4c0-6.4,5.5-9,11.4-9
		c4.1,0,8.1,0.9,9.5,1.5v7.5l-5.5-0.4l-0.5-2.7c-0.1-0.4-0.2-0.6-0.5-0.7c-0.7-0.2-1.9-0.4-3.3-0.4c-2.6,0-4,1-4,2.6
		C81.2,105.6,84.1,106.1,87.2,106.8z M202.3,115.8c-1.4,1.2-3.3,2.2-5.1,2.2c-3.3,0-4.7-2.8-4.7-7.8c0-4.6,1.5-8.1,5.3-8.1
		c1.5,0,3.2,0.7,4.4,1.5C202.3,103.6,202.3,115.8,202.3,115.8z M210.9,119l2.5,0.4v4.1h-9.6l-0.5-2.9l-0.4-0.1
		c-2.2,2.1-4.7,3.6-8.5,3.6c-6.1,0-10-3.9-10-13.7c0-10.4,5.2-14.3,10.9-14.3c3,0,5.3,1,7.3,2.5v-7.8c0-0.5-0.2-0.9-0.7-1l-2.8-1
		l0.6-4.2h10.4V118C210.1,118.8,210.1,118.9,210.9,119L210.9,119z M158.9,101.1c-0.7,0.1-1,0.4-1.2,1l-6.4,21.3h-8.2l-4-17.3h-0.3
		l-4.1,17.3h-9.3l-6.5-21.3c-0.2-0.6-0.5-0.7-1.1-0.9l-0.5-0.1v3.9l-5.5-0.4l-0.5-2.7c-0.1-0.4-0.2-0.6-0.5-0.7
		c-0.7-0.2-1.9-0.4-3.3-0.4c-2.6,0-4,1-4,2.6c0,2.1,2.8,2.6,6,3.3c4.1,0.9,8.7,2.4,8.7,8.4c0,6.3-5.1,8.9-11.7,8.9
		c-4.7,0-9.3-1.2-10.2-1.9v-7.5l5.5,0.4l0.5,2.9c0.1,0.5,0.2,0.7,0.6,0.8c0.6,0.2,2,0.5,4,0.5c2.7,0,4.3-0.8,4.3-2.7
		c0-2.1-2.1-2.7-4.7-3.1c-4.3-0.8-10-1.7-10-8.4c0-6.4,5.5-9,11.4-9c3.4,0,6.7,0.6,8.5,1.2l0.1-0.7h13.1v4.3l-2.9,0.3l4.1,14.5h0.4
		l4.6-18.4h7.8l4.4,18.4h0.3l3.9-14.5l-2.9-0.3l0.7-4.3h10.8v1.5c-0.6,0.9-1.2,1.9-1.7,3L158.9,101.1L158.9,101.1z M177.3,102.4
		c-1.3,0-2.9,1.1-3.7,1.8v13.7c0,0.8,0.1,1,0.8,1l5.1,0.4v4.1h-16.9v-4.2l2.3-0.3c0.7-0.1,0.8-0.3,0.8-1v-15.1
		c0-0.6-0.2-0.9-0.7-1.1l-2.5-0.9c-0.1-0.2-0.2-0.3-0.3-0.5l0.5-3.8h9.1l0.6,4.1h0.3c1.7-2.6,4-4.6,7.3-4.6c1.2,0,3.6,0.2,4.5,0.5
		v9.4l-6.2-0.2L178,103C177.9,102.5,177.8,102.4,177.3,102.4L177.3,102.4z"/>
	<path class="st1" d="M109.5,10.8c19.7,0,35.7,16,35.7,35.7s-16,35.7-35.7,35.7s-35.7-16-35.7-35.7S89.8,10.8,109.5,10.8"/>
	<path class="st2" d="M64.9,46.5c0-24.6,20-44.6,44.6-44.6s44.6,20,44.6,44.6c0,24.6-20,44.6-44.6,44.6S64.9,71.1,64.9,46.5z
		 M73.8,46.5c0,19.7,16,35.7,35.7,35.7s35.7-16,35.7-35.7s-16-35.7-35.7-35.7S73.8,26.7,73.8,46.5z"/>
	<path class="st3" d="M63.4,46.5c0,25.4,20.6,46.1,46.1,46.1s46.1-20.6,46.1-46.1c0-25.4-20.6-46.1-46.1-46.1S63.4,21,63.4,46.5z
		 M64.9,46.5c0-24.6,20-44.6,44.6-44.6s44.6,20,44.6,44.6S134.1,91,109.5,91S64.9,71.1,64.9,46.5z M75.3,46.4
		c0,18.9,15.3,34.2,34.2,34.2s34.2-15.3,34.2-34.2c0-18.9-15.3-34.2-34.2-34.2S75.3,27.6,75.3,46.4z M73.8,46.5
		c0-19.7,16-35.7,35.7-35.7s35.7,16,35.7,35.7s-16,35.7-35.7,35.7S73.8,66.1,73.8,46.5z"/>
	<path class="st4" d="M124.8,83.7c13.6-5.8,23.1-19.2,23.1-34.9c0-20.9-17-37.9-38-37.9s-38,17-38,37.9c0,20.9,16.9,37.8,37.8,37.9
		c-0.1,0-0.1,0-0.2,0c-22,0-39.9-17.8-39.9-39.8S87.5,7.2,109.5,7.2c22,0,39.9,17.8,39.9,39.8C149.4,63.5,139.3,77.7,124.8,83.7z
		 M108.8,87.2c24.6,0,44.5-19.9,44.5-44.4c0-2.3-0.2-4.5-0.5-6.7c0.8,3.4,1.3,6.9,1.3,10.6c0,24.5-19.9,44.4-44.5,44.4
		c-22.3,0-40.8-16.4-44-37.7C70.2,72.8,87.8,87.2,108.8,87.2L108.8,87.2z"/>
	<path class="st5" d="M109.5,19.7c14.8,0,26.8,12,26.8,26.8s-12,26.8-26.8,26.8s-26.8-12-26.8-26.8S94.7,19.7,109.5,19.7z"/>
	<path class="st6" d="M109.5,19.7c-14.8,0-26.8,12-26.8,26.8s12,26.8,26.8,26.8c14.8,0,26.8-12,26.8-26.8S124.3,19.7,109.5,19.7z
		 M109.5,18.2c15.6,0,28.2,12.6,28.2,28.2c0,15.6-12.6,28.2-28.2,28.2S81.2,62,81.2,46.5C81.2,30.9,93.9,18.2,109.5,18.2z"/>
	<path class="st7" d="M121.4,46.5c0,6.6-5.3,11.9-11.9,11.9S97.6,53,97.6,46.5s5.3-11.9,11.9-11.9S121.4,39.9,121.4,46.5z"/>
	<path class="st8" d="M119.9,46.5c0-5.7-4.7-10.4-10.4-10.4c-5.7,0-10.4,4.7-10.4,10.4s4.7,10.4,10.4,10.4
		C115.2,56.9,119.9,52.2,119.9,46.5z M121.4,46.5c0,6.6-5.3,11.9-11.9,11.9S97.6,53,97.6,46.5s5.3-11.9,11.9-11.9
		S121.4,39.9,121.4,46.5z"/>
	<path class="st9" d="M121.4,46.5c0-6.6-5.3-11.9-11.9-11.9s-11.9,5.3-11.9,11.9s5.3,11.9,11.9,11.9S121.4,53,121.4,46.5z
		 M122.9,46.5c0,7.4-6,13.4-13.4,13.4c-7.4,0-13.4-6-13.4-13.4s6-13.4,13.4-13.4C116.9,33.1,122.9,39.1,122.9,46.5z"/>
	<path class="st2" d="M103.5,41V28.6h11.9v20.7l-3,2.8l3,2.8v12.4h-11.9V46.6l3-2.8L103.5,41z"/>
	<path class="st10" d="M103.5,39.6V27.1h11.9v20.7l-3,2.8l3,2.8v12.4h-11.9V45.1l3-2.8C106.5,42.3,103.5,39.6,103.5,39.6z"/>
	<path class="st11" d="M105,40.8V30.1h8.9v18.4l-2.2,2.5v1.5l2.2,2.8v10.4H105V47.4l2.2-2.5v-1.5L105,40.8z"/>
</g>
</svg>
