<?xml version="1.0" encoding="utf-8"?>
<!-- Generator: Adobe Illustrator 24.0.1, SVG Export Plug-In . SVG Version: 6.00 Build 0)  -->
<svg version="1.1" xmlns="http://www.w3.org/2000/svg" xmlns:xlink="http://www.w3.org/1999/xlink" x="0px" y="0px"
	 viewBox="0 0 1151.4 1024" style="enable-background:new 0 0 1151.4 1024;" xml:space="preserve">
<style type="text/css">
	.st0{fill:#29303A;}
	.st1{fill:#FFC727;}
	.st2{fill:#FFFFFF;stroke:#000000;stroke-miterlimit:10;}
	.st3{fill:#FFFFFF;}
</style>
<g id="Layer_3">
	<g>
		<path class="st0" d="M1151.4,1022c0,1.1-0.9,2-2,2H2c-1.1,0-2-0.9-2-2V2c0-1.1,0.9-2,2-2h1147.4c1.1,0,2,0.9,2,2V1022z"/>
	</g>
</g>
<g id="Layer_2">
	<g>
		<path class="st1" d="M232.9,99.1c-0.6,0-0.9,0.4-0.8,1l124.1,697.5c0.1,0.5,0.6,1,1.2,1h547.2c0.5,0,1.1-0.4,1.1-1l21.2-139.6
			c0.1-0.5-0.3-1-0.9-1H468.9c-0.6,0-1.1-0.4-1.2-1l-21.1-135.3c-0.1-0.5,0.3-1,0.8-1h504.3c0.5,0,1.1-0.4,1.2-1L982.6,379
			c0.1-0.5-0.2-1-0.8-1H421.7c-0.5,0-1.1-0.4-1.2-1l-25.4-135.3c-0.1-0.5,0.3-1,0.8-1h620.2c0.5,0,1.1-0.4,1.2-1l34.9-139.9
			c0.1-0.5-0.2-1-0.8-1L232.9,99.1z"/>
	</g>
	<path class="st2" d="M1031.8,746.8"/>
	<g>
		<path class="st1" d="M235,238.3c0.6,0,1.1,0.4,1.2,1l101.6,558.2c0.1,0.5-0.3,1-0.8,1H231.7c-0.6,0-1.1-0.4-1.2-1L124,239.3
			c-0.1-0.5,0.3-1,0.8-1H235z"/>
	</g>
	<g>
		<path class="st1" d="M210.6,100.1c-0.1-0.5-0.6-1-1.2-1H99.9c-0.5,0-0.9,0.4-0.8,1l21.1,118.2c0.1,0.5,0.6,1,1.2,1h109.6
			c0.5,0,0.9-0.4,0.8-1L210.6,100.1z"/>
	</g>
	<g>
		<path class="st1" d="M358.3,924.2c0.1,0.5-0.3,1-0.8,1H254.3c-0.5,0-1.1-0.4-1.2-1l-19-106.7c-0.1-0.5,0.3-1,0.8-1H340
			c0.5,0,1.1,0.4,1.2,1L358.3,924.2z"/>
	</g>
	<g>
		<path class="st3" d="M566.1,788.7"/>
	</g>
	<g>
		<path class="st1" d="M890,924.1c-0.1,0.5-0.6,1-1.1,1l-511.1,0c-0.6,0-1.1-0.4-1.2-1l-17.5-106.6c-0.1-0.5,0.3-1,0.8-1H902
			c0.5,0,0.9,0.4,0.9,1L890,924.1z"/>
	</g>
</g>
</svg>
