<?xml version="1.0" encoding="utf-8"?>
<!-- Generator: Adobe Illustrator 24.0.1, SVG Export Plug-In . SVG Version: 6.00 Build 0)  -->
<svg version="1.1" id="Layer_2_1_" xmlns="http://www.w3.org/2000/svg" xmlns:xlink="http://www.w3.org/1999/xlink" x="0px" y="0px"
	 viewBox="0 0 227.3 192.6" style="enable-background:new 0 0 227.3 192.6;" xml:space="preserve">
<style type="text/css">
	.st0{fill:#29303A;}
	.st1{fill:#29303A;stroke:#000000;stroke-miterlimit:10;}
</style>
<g>
	<path class="st0" d="M32,0.1c-0.5,0-0.9,0.4-0.8,1l28.7,161c0.1,0.5,0.6,1,1.2,1h131c0.6,0,1.1-0.4,1.1-1l4.7-31
		c0.1-0.5-0.3-1-0.9-1H87c-0.6,0-1.1-0.4-1.2-1l-4.7-30c-0.1-0.5,0.3-1,0.8-1h121c0.6,0,1.1-0.4,1.2-1l6.6-31c0.1-0.5-0.2-1-0.8-1
		H76c-0.6,0-1.1-0.4-1.2-1l-5.6-30c-0.1-0.5,0.3-1,0.8-1h148c0.6,0,1.1-0.4,1.2-1L227,1c0.1-0.5-0.2-1-0.8-1L32,0.1z"/>
</g>
<path class="st1" d="M268,394.1"/>
<g>
	<path class="st0" d="M31,32.5c0.5,0,1.1,0.4,1.2,1l23.4,128.6c0.1,0.5-0.3,1-0.8,1h-23c-0.5,0-1.1-0.4-1.2-1L6,33.5
		c-0.1-0.5,0.3-1,0.8-1C6.8,32.5,31,32.5,31,32.5z"/>
</g>
<g>
	<path class="st0" d="M26.2,1c-0.1-0.5-0.6-1-1.2-1H1c-0.6,0-0.9,0.4-0.8,1l4.7,26c0.1,0.5,0.6,1,1.2,1h24c0.5,0,0.9-0.4,0.8-1
		L26.2,1z"/>
</g>
<g>
	<path class="st0" d="M60.3,191.6c0.1,0.5-0.3,1-0.8,1H37c-0.5,0-1.1-0.4-1.2-1l-4.2-23.4c-0.1-0.5,0.3-1,0.8-1h23
		c0.5,0,1.1,0.4,1.2,1L60.3,191.6z"/>
</g>
<g>
	<path class="st0" d="M108.9,160.8"/>
</g>
<g>
	<path class="st0" d="M189.5,191.6c-0.1,0.6-0.6,1-1.1,1H65.8c-0.6,0-1.1-0.4-1.2-1l-3.8-23.3c-0.1-0.5,0.3-1,0.8-1h129.8
		c0.6,0,0.9,0.4,0.9,1L189.5,191.6z"/>
</g>
</svg>
