<?xml version="1.0" encoding="utf-8"?>
<!-- Generator: Adobe Illustrator 24.0.1, SVG Export Plug-In . SVG Version: 6.00 Build 0)  -->
<svg version="1.1" id="Layer_2" xmlns="http://www.w3.org/2000/svg" xmlns:xlink="http://www.w3.org/1999/xlink" x="0px" y="0px"
	 viewBox="0 0 227.25 192.57" style="enable-background:new 0 0 227.25 192.57;" xml:space="preserve">
<style type="text/css">
	.st0{fill:#FFFFFF;}
	.st1{fill:#FFFFFF;stroke:#000000;stroke-miterlimit:10;}
</style>
<g>
	<path class="st0" d="M32,0.06c-0.55,0-0.92,0.44-0.82,0.98l28.65,161.03c0.1,0.54,0.63,0.98,1.18,0.98h131
		c0.55,0,1.07-0.44,1.15-0.99l4.7-31.02c0.08-0.54-0.3-0.99-0.85-0.99H87c-0.55,0-1.07-0.44-1.15-0.99l-4.69-30.02
		c-0.08-0.54,0.3-0.99,0.85-0.99h121c0.55,0,1.09-0.44,1.21-0.98l6.58-31.04c0.11-0.54-0.24-0.98-0.79-0.98H76
		c-0.55,0-1.08-0.44-1.18-0.98l-5.63-30.03c-0.1-0.54,0.27-0.98,0.82-0.98h148c0.55,0,1.11-0.44,1.24-0.97l7.77-31.12
		C227.14,0.44,226.8,0,226.25,0L32,0.06z"/>
</g>
<path class="st1" d="M268,394.06"/>
<g>
	<path class="st0" d="M30.95,32.51c0.55,0,1.08,0.44,1.18,0.98l23.41,128.59c0.1,0.54-0.27,0.98-0.82,0.98h-23
		c-0.55,0-1.08-0.44-1.19-0.98L5.99,33.49c-0.1-0.54,0.26-0.98,0.81-0.98H30.95z"/>
</g>
<g>
	<path class="st0" d="M26.18,1.04C26.08,0.5,25.55,0.06,25,0.06H1c-0.55,0-0.92,0.44-0.82,0.98l4.65,26.03
		c0.1,0.54,0.63,0.98,1.18,0.98h24c0.55,0,0.92-0.44,0.82-0.98L26.18,1.04z"/>
</g>
<g>
	<path class="st0" d="M60.34,191.59c0.09,0.54-0.29,0.99-0.84,0.99H37c-0.55,0-1.08-0.44-1.18-0.98l-4.16-23.36
		c-0.1-0.54,0.27-0.98,0.82-0.98h22.95c0.55,0,1.07,0.44,1.16,0.99L60.34,191.59z"/>
</g>
<g>
	<path class="st0" d="M108.88,160.76"/>
</g>
<g>
	<path class="st0" d="M189.47,191.57c-0.07,0.55-0.57,0.99-1.12,0.99l-122.57,0c-0.55,0-1.07-0.44-1.16-0.99l-3.82-23.34
		c-0.09-0.54,0.29-0.99,0.84-0.99H191.4c0.55,0,0.95,0.45,0.88,0.99L189.47,191.57z"/>
</g>
</svg>
