<?xml version="1.0" encoding="utf-8"?>
<!-- Generator: Adobe Illustrator 25.0.0, SVG Export Plug-In . SVG Version: 6.00 Build 0)  -->
<svg version="1.1" id="Layer_1" xmlns="http://www.w3.org/2000/svg" xmlns:xlink="http://www.w3.org/1999/xlink" x="0px" y="0px"
	 viewBox="0 0 2426.4 500.1" style="enable-background:new 0 0 2426.4 500.1;" xml:space="preserve">
<style type="text/css">
	.st0{fill:#2C3C69;}
	.st1{fill:#F9A11D;}
</style>
<path class="st0" d="M495.3,421.5V189.7h56.3v183h89.7v48.8L495.3,421.5L495.3,421.5z M826.8,341.9v6.6c0,0-0.1,4.3-0.3,6.2H708.3
	c0.4,4.6,1.8,8.7,4.1,12.4c2.3,3.7,5.2,6.9,8.8,9.7c3.6,2.7,7.6,4.9,12.1,6.4c4.5,1.5,9.2,2.3,13.9,2.3c8.5,0,15.7-1.6,21.6-4.7
	c5.7-3,10.6-7.2,14.4-12.3l37.3,23.6c-7.6,11.1-17.7,19.7-30.3,25.7c-12.6,6-27.1,9-43.7,9c-12.2,0-23.8-1.9-34.7-5.7
	c-10.9-3.8-20.5-9.4-28.6-16.7c-8.2-7.3-14.6-16.3-19.3-27c-4.7-10.7-7-22.9-7-36.7c0-13.3,2.3-25.4,6.9-36.2
	c4.6-10.8,10.8-20,18.7-27.5c7.9-7.5,17.1-13.4,27.8-17.5c10.7-4.1,22.3-6.2,34.7-6.2c12,0,23,2,33.1,6.1c10,4,18.7,9.9,25.9,17.5
	c7.2,7.6,12.8,16.9,16.9,27.8C824.8,315.5,826.8,328,826.8,341.9L826.8,341.9z M777.4,321.3c0-8.5-2.7-15.8-8-21.9
	c-5.4-6.1-13.4-9.2-24.1-9.2c-5.2,0-10,0.8-14.4,2.5c-4.4,1.6-8.2,3.9-11.5,6.7c-3.2,2.8-5.9,6.2-7.9,10c-1.9,3.7-3,7.8-3.3,11.9
	H777.4z M912.6,298.4v62.4c0,7.7,1.5,13.4,4.4,17.3c2.9,3.8,8.2,5.7,15.9,5.7c2.6,0,5.4-0.2,8.3-0.7c2.9-0.4,5.4-1.1,7.4-2l0.7,39.3
	c-3.7,1.3-8.4,2.4-14.1,3.4c-5.7,1-11.3,1.5-17,1.5c-10.9,0-20.1-1.4-27.5-4.1c-7.4-2.7-13.4-6.7-17.8-11.8
	c-4.5-5.1-7.7-11.3-9.7-18.4c-2-7.1-2.9-15-2.9-23.8v-68.9H834v-39.9h25.9v-42.9h52.7v42.9h38.3v39.9L912.6,298.4z M1124.7,306.6
	c-4.6-4.3-9.7-7.8-15.4-10.5c-5.8-2.8-12.2-4.3-18.7-4.3c-5,0-9.7,1-13.9,2.9c-4.3,2-6.4,5.4-6.4,10.1c0,4.6,2.3,7.9,7,9.8
	c4.7,2,12.3,4.1,22.8,6.5c6.1,1.3,12.3,3.2,18.5,5.6s11.8,5.6,16.9,9.5c5,3.9,9.1,8.8,12.1,14.4c3,5.7,4.6,12.4,4.6,20.3
	c0,10.3-2.1,18.9-6.2,26c-4.1,7.1-9.5,12.8-16.2,17.2c-6.7,4.4-14.1,7.5-22.4,9.5c-8.1,1.9-16.5,2.9-24.9,2.9
	c-13.3,0-26.4-2.1-39.1-6.4c-12.8-4.3-23.4-10.5-31.9-18.8l30.1-31.8c4.8,5.2,10.7,9.6,17.7,13.1c7,3.5,14.4,5.2,22.3,5.2
	c4.5,0,8.9-1.1,12.9-3.1c4.3-2.1,6.4-5.7,6.4-11c0-5-2.6-8.7-7.9-11.1c-5.2-2.4-13.4-4.9-24.6-7.5c-5.8-1.3-11.5-3.1-17-5.2
	c-5.5-2.1-10.7-5.1-15.2-8.8c-4.5-3.8-8.3-8.5-11-13.7c-2.8-5.4-4.3-12-4.3-19.6c0-9.8,2.1-18.2,6.2-25c4-6.7,9.5-12.5,16-16.9
	c6.5-4.4,13.8-7.6,21.8-9.7c8-2.1,15.9-3.1,23.7-3.1c12.2,0,24.2,1.9,35.8,5.7c11.7,3.8,21.6,9.5,29.6,17.2L1124.7,306.6z
	 M1255,421.5V189.7h155.8v47.1H1309v43.9h96.2v44.8H1309v48.1h107.7v47.8H1255z M1558.3,421.5v-89c0-4.6-0.4-8.9-1.1-13.1
	c-0.7-3.8-1.9-7.5-3.8-11c-1.7-3.1-4.3-5.7-7.4-7.5c-3.2-1.8-7.2-2.8-11.9-2.8c-4.8,0-9,0.9-12.6,2.8c-3.6,1.9-6.6,4.4-9,7.7
	c-2.4,3.3-4.2,7-5.4,11.3c-1.2,4.3-1.8,8.8-1.8,13.3v88.4h-54v-163h52V281h0.7c2.1-3.7,4.7-7.2,7.7-10.3c3.2-3.4,7-6.4,11.1-8.7
	c4.4-2.5,9.1-4.4,13.9-5.9c5.2-1.6,10.6-2.3,16-2.3c10.9,0,20.2,2,27.8,5.9c7.6,3.9,13.8,9,18.5,15.2c4.8,6.4,8.2,13.7,10.1,21.4
	c2.1,8.1,3.1,16.2,3.1,24.2v100.8L1558.3,421.5L1558.3,421.5z M1750.5,311.2c-3.1-3.9-7.2-7.1-12.4-9.5c-5-2.4-10.5-3.6-16-3.6
	c-5.7,0-10.8,1.1-15.4,3.4c-4.6,2.3-8.5,5.4-11.8,9.2c-3.3,3.9-5.9,8.4-7.7,13.3c-1.9,5.1-2.8,10.6-2.8,16c0,5.7,0.9,11,2.6,16
	c1.7,5,4.3,9.4,7.7,13.3c3.4,3.8,7.5,6.9,12.1,9c4.7,2.2,10,3.3,15.9,3.3c5.4,0,10.9-1,16.2-3.1c5.3-2.1,9.7-5.1,12.9-9l29.8,36.3
	c-6.8,6.5-15.5,11.7-26.2,15.4c-11,3.7-22.5,5.6-34,5.6c-12.9,0-24.9-2-36.1-5.9c-11.2-3.9-20.9-9.7-29.1-17.2
	c-8.2-7.5-14.7-16.6-19.4-27.3c-4.7-10.7-7.1-22.8-7.1-36.3c0-13.3,2.4-25.3,7.1-36c4.7-10.7,11.2-19.8,19.4-27.3
	c8.2-7.5,17.9-13.3,29.1-17.3c11.2-4,23.1-6.1,35.7-6.1c5.9,0,11.7,0.5,17.5,1.6c5.8,1.1,11.3,2.6,16.7,4.4
	c5.3,1.9,10.3,4.1,14.7,6.9c4.5,2.7,8.4,5.7,11.6,9L1750.5,311.2z M1907.8,302.6c-2.4-0.7-4.8-1.1-7-1.3c-2.3-0.2-4.5-0.3-6.7-0.3
	c-7.2,0-13.3,1.3-18.2,3.9c-4.9,2.6-8.8,5.8-11.8,9.5c-2.9,3.7-5.1,7.7-6.4,12.1c-1.3,4.4-2,8.2-2,11.4v83.6h-53.7V258.7h51.7v23.6
	h0.7c4-8.2,10.1-15.3,17.7-20.4c7.6-5.3,16.5-7.9,26.5-7.9c2.2,0,4.3,0.1,6.4,0.3c2.1,0.2,3.8,0.5,5.1,1L1907.8,302.6z M2033.9,446
	c-3,7.9-6.6,15.5-11,22.8c-3.8,6.4-8.7,12.2-14.4,17c-5.6,4.7-12.1,8.2-19.6,10.6c-7.5,2.4-16.4,3.6-26.7,3.6
	c-5.2,0-10.4-0.3-15.5-1c-4.7-0.5-9.3-1.4-13.9-2.6l5.9-45.2c2.6,0.9,5.5,1.6,8.7,2.1c3.2,0.5,6.1,0.8,8.7,0.8
	c8.3,0,14.3-1.9,18-5.7c3.7-3.8,6.9-9.2,9.5-16.2l5.2-13.4l-68.1-160.4h59.6l36.3,104.8h1l32.4-104.8h57L2033.9,446z M2302.3,339.3
	c0,11.3-1.7,22.3-5.2,32.7c-3.5,10.5-8.6,19.7-15.2,27.7c-6.7,8-15,14.5-24.4,19.2c-9.6,4.8-20.5,7.2-32.7,7.2
	c-10,0-19.5-2-28.5-6.1c-9-4-15.9-9.5-20.9-16.5h-0.6v96.6H2121V258.5h51.1v20h1c5-6.5,11.9-12.3,20.8-17.2
	c8.8-4.9,19.3-7.4,31.3-7.4c11.8,0,22.5,2.3,32.1,6.9c9.6,4.6,17.7,10.8,24.4,18.7c6.7,7.9,11.8,17,15.4,27.3
	C2300.5,317.2,2302.4,328.2,2302.3,339.3L2302.3,339.3z M2250.3,339.3c0-5.2-0.8-10.4-2.4-15.4c-1.5-4.8-4-9.3-7.2-13.3
	c-3.2-3.8-7.2-6.9-11.9-9.3s-10.4-3.6-16.7-3.6c-6.1,0-11.6,1.2-16.4,3.6c-4.7,2.3-8.9,5.5-12.3,9.5c-3.4,4-6.1,8.5-7.9,13.4
	c-3.7,9.9-3.7,20.8,0,30.8c1.8,4.9,4.4,9.5,7.9,13.4c3.4,4,7.6,7.2,12.3,9.5c4.8,2.4,10.3,3.6,16.4,3.6c6.3,0,11.9-1.2,16.7-3.6
	c4.8-2.4,8.8-5.6,11.9-9.5c3.2-3.9,5.6-8.5,7.2-13.6C2249.5,349.8,2250.3,344.6,2250.3,339.3z M2388.1,298.4v62.4
	c0,7.7,1.5,13.4,4.4,17.3c2.9,3.8,8.2,5.7,15.9,5.7c2.6,0,5.4-0.2,8.3-0.7c2.9-0.4,5.4-1.1,7.4-2l0.7,39.3
	c-3.7,1.3-8.4,2.4-14.1,3.4c-5.7,1-11.3,1.5-17,1.5c-10.9,0-20.1-1.4-27.5-4.1c-7.4-2.7-13.4-6.7-17.8-11.8
	c-4.5-5.1-7.7-11.3-9.7-18.4c-2-7.1-2.9-15-2.9-23.8v-68.9h-26.2v-39.9h25.9v-42.9h52.7v42.9h38.3v39.9L2388.1,298.4z M1000,185.3
	c-16.1,0-28.7,11.6-28.7,26.4c0,15.6,10.6,26.1,26.4,26.1c1.4,0,2.6-0.1,3.8-0.4c-2.5,11.6-13.7,19.9-24.2,21.5l-2.1,0.3v24.9
	l2.8-0.3c13-1.3,25.2-6.9,34.6-15.9c12-11.6,18.4-28.4,18.4-48.5C1031,199.7,1017.9,185.3,1000,185.3z"/>
<path class="st1" d="M342.7,269.9h-59.3v-30.5c0-24.4-19.8-44.1-44.1-44.1c-24.4,0-44.1,19.8-44.1,44.1v30.5h-59.3v-30.5
	c0-57,46.4-103.5,103.5-103.5s103.5,46.4,103.5,103.5L342.7,269.9L342.7,269.9z"/>
<path class="st0" d="M366.6,269.9H111.8c-10.9,0-19.7,8.9-19.8,19.8v188.5c0,10.9,8.9,19.7,19.8,19.8h254.8
	c10.9,0,19.7-8.9,19.8-19.8V289.7C386.3,278.8,377.5,270,366.6,269.9z M252.1,393.7v25.5c-0.2,7.1-6.2,12.7-13.3,12.5
	c-6.8-0.2-12.2-5.7-12.5-12.5v-25.5c-12.6-7.1-17-23.1-9.9-35.7c7.1-12.6,23.1-17,35.7-9.9c8.2,4.7,13.3,13.4,13.3,22.8
	C265.4,380.3,260.3,389,252.1,393.7z"/>
<path class="st1" d="M86,241.8H24.5c-10,0-18-8.1-18-18c0-10,8.1-18,18-18H86c10,0,18,8.1,18,18C104,233.8,96,241.8,86,241.8z
	 M129.3,145.1c-4.2,0-8.2-1.4-11.5-4.1l-48.6-40c-7.7-6.3-8.8-17.7-2.5-25.4s17.7-8.8,25.4-2.5l48.6,40c7.7,6.3,8.8,17.7,2.5,25.4
	C139.8,142.7,134.7,145.1,129.3,145.1z M239.2,102.6c-10,0-18-8.1-18-18v-62c0-10,8.1-18.1,18-18.1c10,0,18.1,8.1,18.1,18
	c0,0,0,0,0,0v62C257.2,94.5,249.2,102.6,239.2,102.6z M349.1,145.1c-10,0-18.1-8.1-18.1-18.1c0-5.4,2.4-10.5,6.6-13.9l48.6-40
	c7.8-6.2,19.2-4.8,25.4,3c6,7.6,4.9,18.6-2.4,24.9l-48.6,40C357.3,143.7,353.3,145.1,349.1,145.1L349.1,145.1z M453.9,241.8h-62.1
	c-10,0-18-8.1-18-18c0-10,8.1-18,18-18h62.1c10,0,18,8.1,18,18C471.9,233.8,463.9,241.8,453.9,241.8z"/>
</svg>
